<?xml version="1.0" encoding="utf-8"?>
<!-- Generator: Adobe Illustrator 16.0.0, SVG Export Plug-In . SVG Version: 6.00 Build 0)  -->
<!DOCTYPE svg PUBLIC "-//W3C//DTD SVG 1.1//EN" "http://www.w3.org/Graphics/SVG/1.1/DTD/svg11.dtd">
<svg version="1.1" id="Layer_1" xmlns="http://www.w3.org/2000/svg" xmlns:xlink="http://www.w3.org/1999/xlink" x="0px" y="0px"
	 width="612px" height="1765.001px" viewBox="0 0 612 1765.001" enable-background="new 0 0 612 1765.001" xml:space="preserve">
<g>
	<rect x="272.71" y="1029.273" fill="#88362B" width="66.39" height="157.035"/>
	<rect x="305.631" y="1136.5" fill="#BA4E42" width="26.507" height="42.715"/>
	<rect x="279.625" y="1136.5" fill="#943C31" width="26.507" height="42.715"/>
	<rect x="305.631" y="1088.414" fill="#BA4E42" width="26.507" height="40.732"/>
	<rect x="279.625" y="1088.414" fill="#943C31" width="26.507" height="40.732"/>
	<rect x="305.631" y="1038.775" fill="#BA4E42" width="26.507" height="40.732"/>
	<rect x="279.625" y="1038.775" fill="#943C31" width="26.507" height="40.732"/>
	<ellipse fill="#88362B" cx="269.084" cy="1165.775" rx="1.577" ry="11.82"/>
	<ellipse fill="#88362B" cx="269.084" cy="1136.5" rx="1.577" ry="11.82"/>
	<ellipse fill="#88362B" cx="269.084" cy="1106.359" rx="1.577" ry="11.82"/>
	<ellipse fill="#88362B" cx="269.084" cy="1076.596" rx="1.577" ry="11.82"/>
	<ellipse fill="#88362B" cx="269.084" cy="1047.32" rx="1.577" ry="11.82"/>
	<ellipse fill="#88362B" cx="343.464" cy="1165.775" rx="1.576" ry="11.82"/>
	<ellipse fill="#88362B" cx="343.464" cy="1136.5" rx="1.576" ry="11.82"/>
	<ellipse fill="#88362B" cx="343.464" cy="1106.359" rx="1.576" ry="11.82"/>
	<ellipse fill="#88362B" cx="343.464" cy="1076.596" rx="1.576" ry="11.82"/>
	<ellipse fill="#88362B" cx="343.464" cy="1047.32" rx="1.576" ry="11.82"/>
</g>
<rect x="272.806" y="668.484" fill="#65844A" width="66.387" height="157.033"/>
<rect x="272.71" y="847.502" fill="#096C86" width="66.39" height="157.031"/>
<path fill="#E1C12B" d="M339.064,492.016c-0.207-24.267-18.775-43.871-33.971-43.871c-15.198,0-33.708,19.604-33.914,43.871h-0.009
	v154.233h33.887h0.65h33.368V492.016H339.064z"/>
<rect x="279.126" y="494.803" fill="#FFEA59" width="26.504" height="143.754"/>
<rect x="305.132" y="494.803" fill="#FADA3A" width="26.505" height="143.754"/>
<path fill="#1D96BC" d="M305.381,456.978v30.468h-26.254C279.126,487.445,278.861,461.272,305.381,456.978z"/>
<path fill="#0E82A1" d="M305.381,456.978v30.468h26.256C331.637,487.445,331.899,461.272,305.381,456.978z"/>
<ellipse fill="#FADA3A" cx="342.179" cy="512.889" rx="1.577" ry="11.819"/>
<path fill="#FADA3A" d="M343.756,542.162c0,6.529-0.706,11.82-1.576,11.82c-0.871,0-1.577-5.291-1.577-11.82
	c0-6.525,0.706-11.818,1.577-11.818C343.05,530.344,343.756,535.637,343.756,542.162z"/>
<ellipse fill="#FADA3A" cx="342.179" cy="572.306" rx="1.577" ry="11.818"/>
<ellipse fill="#FADA3A" cx="342.179" cy="602.069" rx="1.577" ry="11.819"/>
<ellipse fill="#FADA3A" cx="342.179" cy="631.343" rx="1.577" ry="11.821"/>
<ellipse fill="#E1C12B" cx="267.799" cy="512.889" rx="1.577" ry="11.819"/>
<path fill="#E1C12B" d="M269.375,542.162c0,6.529-0.706,11.82-1.577,11.82s-1.577-5.291-1.577-11.82
	c0-6.525,0.706-11.818,1.577-11.818S269.375,535.637,269.375,542.162z"/>
<ellipse fill="#E1C12B" cx="267.799" cy="572.306" rx="1.577" ry="11.818"/>
<ellipse fill="#E1C12B" cx="267.799" cy="602.069" rx="1.577" ry="11.819"/>
<ellipse fill="#E1C12B" cx="267.799" cy="631.343" rx="1.577" ry="11.821"/>
<rect x="304.5" y="649.344" fill="#DFDEDE" width="6.07" height="15.082"/>
<rect x="298.431" y="649.344" fill="#EEF0F0" width="6.069" height="15.082"/>
<ellipse transform="matrix(0.7071 -0.7071 0.7071 0.7071 -237.9092 337.6031)" fill="#FFFFFF" cx="288.568" cy="455.983" rx="3.683" ry="3.042"/>
<ellipse transform="matrix(0.7071 0.7071 -0.7071 0.7071 416.7403 -94.1332)" fill="#FFFFFF" cx="321.999" cy="455.983" rx="3.683" ry="3.041"/>
<rect x="279.768" y="675.578" fill="#A8D16C" width="26.505" height="42.715"/>
<rect x="305.774" y="675.578" fill="#7FA35D" width="26.507" height="42.715"/>
<rect x="279.768" y="725.645" fill="#A8D16C" width="26.505" height="93.648"/>
<rect x="305.774" y="725.645" fill="#7FA35D" width="26.507" height="93.648"/>
<ellipse fill="#65844A" cx="342.821" cy="689.018" rx="1.577" ry="11.82"/>
<ellipse fill="#65844A" cx="342.821" cy="718.293" rx="1.577" ry="11.819"/>
<ellipse fill="#65844A" cx="342.821" cy="748.434" rx="1.577" ry="11.82"/>
<ellipse fill="#65844A" cx="342.821" cy="778.197" rx="1.577" ry="11.82"/>
<ellipse fill="#65844A" cx="342.821" cy="807.472" rx="1.577" ry="11.821"/>
<ellipse fill="#65844A" cx="268.441" cy="689.018" rx="1.577" ry="11.82"/>
<ellipse fill="#65844A" cx="268.441" cy="718.293" rx="1.577" ry="11.819"/>
<ellipse fill="#65844A" cx="268.441" cy="748.434" rx="1.577" ry="11.82"/>
<ellipse fill="#65844A" cx="268.441" cy="778.197" rx="1.577" ry="11.82"/>
<ellipse fill="#65844A" cx="268.441" cy="807.472" rx="1.577" ry="11.821"/>
<rect x="305.631" y="954.727" fill="#0E82A1" width="26.507" height="42.715"/>
<rect x="279.625" y="954.727" fill="#1D96BC" width="26.507" height="42.715"/>
<rect x="305.631" y="853.727" fill="#0E82A1" width="26.507" height="93.646"/>
<rect x="279.625" y="853.727" fill="#1D96BC" width="26.507" height="93.646"/>
<path fill="#096C86" d="M267.508,984.002c0-6.529,0.706-11.82,1.575-11.82c0.874,0,1.579,5.291,1.579,11.82
	c0,6.525-0.705,11.818-1.579,11.818C268.214,995.82,267.508,990.527,267.508,984.002z"/>
<path fill="#096C86" d="M267.508,954.727c0-6.529,0.706-11.82,1.575-11.82c0.874,0,1.579,5.291,1.579,11.82
	c0,6.527-0.705,11.82-1.579,11.82C268.214,966.547,267.508,961.254,267.508,954.727z"/>
<path fill="#096C86" d="M267.508,924.582c0-6.525,0.706-11.816,1.575-11.816c0.874,0,1.579,5.291,1.579,11.816
	c0,6.529-0.705,11.822-1.579,11.822C268.214,936.404,267.508,931.111,267.508,924.582z"/>
<path fill="#096C86" d="M267.508,894.82c0-6.527,0.706-11.818,1.575-11.818c0.874,0,1.579,5.291,1.579,11.818
	c0,6.529-0.705,11.82-1.579,11.82C268.214,906.641,267.508,901.35,267.508,894.82z"/>
<path fill="#096C86" d="M267.508,865.547c0-6.527,0.706-11.82,1.575-11.82c0.874,0,1.579,5.293,1.579,11.82
	c0,6.529-0.705,11.82-1.579,11.82C268.214,877.367,267.508,872.076,267.508,865.547z"/>
<path fill="#096C86" d="M341.889,984.002c0-6.529,0.706-11.82,1.576-11.82c0.871,0,1.575,5.291,1.575,11.82
	c0,6.525-0.704,11.818-1.575,11.818C342.595,995.82,341.889,990.527,341.889,984.002z"/>
<ellipse fill="#096C86" cx="343.464" cy="954.727" rx="1.576" ry="11.82"/>
<path fill="#096C86" d="M341.889,924.582c0-6.525,0.706-11.816,1.576-11.816c0.871,0,1.575,5.291,1.575,11.816
	c0,6.529-0.704,11.822-1.575,11.822C342.595,936.404,341.889,931.111,341.889,924.582z"/>
<ellipse fill="#096C86" cx="343.464" cy="894.82" rx="1.576" ry="11.818"/>
<ellipse fill="#096C86" cx="343.464" cy="865.547" rx="1.576" ry="11.82"/>
<rect x="304.974" y="828.956" fill="#DFDEDE" width="6.067" height="15.084"/>
<rect x="298.902" y="828.956" fill="#EEF0F0" width="6.071" height="15.08"/>
<rect x="304.502" y="1008.019" fill="#DFDEDE" width="6.067" height="15.084"/>
<rect x="298.431" y="1008.019" fill="#EEF0F0" width="6.071" height="15.08"/>
<g>
	<rect x="272.71" y="1569.02" fill="#88362B" width="66.39" height="157.035"/>
	<rect x="305.631" y="1676.246" fill="#BA4E42" width="26.507" height="42.715"/>
	<rect x="279.625" y="1676.246" fill="#943C31" width="26.507" height="42.715"/>
	<rect x="305.631" y="1628.16" fill="#BA4E42" width="26.507" height="40.732"/>
	<rect x="279.625" y="1628.16" fill="#943C31" width="26.507" height="40.732"/>
	<rect x="305.631" y="1578.521" fill="#BA4E42" width="26.507" height="40.732"/>
	<rect x="279.625" y="1578.521" fill="#943C31" width="26.507" height="40.732"/>
	<ellipse fill="#88362B" cx="269.084" cy="1705.521" rx="1.577" ry="11.82"/>
	<ellipse fill="#88362B" cx="269.084" cy="1676.246" rx="1.577" ry="11.82"/>
	<ellipse fill="#88362B" cx="269.084" cy="1646.105" rx="1.577" ry="11.82"/>
	<ellipse fill="#88362B" cx="269.084" cy="1616.342" rx="1.577" ry="11.82"/>
	<ellipse fill="#88362B" cx="269.084" cy="1587.066" rx="1.577" ry="11.82"/>
	<ellipse fill="#88362B" cx="343.464" cy="1705.521" rx="1.576" ry="11.82"/>
	<ellipse fill="#88362B" cx="343.464" cy="1676.246" rx="1.576" ry="11.82"/>
	<ellipse fill="#88362B" cx="343.464" cy="1646.105" rx="1.576" ry="11.82"/>
	<ellipse fill="#88362B" cx="343.464" cy="1616.342" rx="1.576" ry="11.82"/>
	<ellipse fill="#88362B" cx="343.464" cy="1587.066" rx="1.576" ry="11.82"/>
</g>
<rect x="272.806" y="1208.23" fill="#65844A" width="66.387" height="157.033"/>
<rect x="272.71" y="1387.248" fill="#096C86" width="66.39" height="157.031"/>
<rect x="304.5" y="1189.09" fill="#DFDEDE" width="6.07" height="15.082"/>
<rect x="298.431" y="1189.09" fill="#EEF0F0" width="6.069" height="15.082"/>
<rect x="279.768" y="1215.324" fill="#A8D16C" width="26.505" height="42.715"/>
<rect x="305.774" y="1215.324" fill="#7FA35D" width="26.507" height="42.715"/>
<rect x="279.768" y="1265.391" fill="#A8D16C" width="26.505" height="93.648"/>
<rect x="305.774" y="1265.391" fill="#7FA35D" width="26.507" height="93.648"/>
<ellipse fill="#65844A" cx="342.821" cy="1228.764" rx="1.577" ry="11.82"/>
<ellipse fill="#65844A" cx="342.821" cy="1258.039" rx="1.577" ry="11.819"/>
<ellipse fill="#65844A" cx="342.821" cy="1288.18" rx="1.577" ry="11.82"/>
<ellipse fill="#65844A" cx="342.821" cy="1317.943" rx="1.577" ry="11.82"/>
<ellipse fill="#65844A" cx="342.821" cy="1347.218" rx="1.577" ry="11.821"/>
<ellipse fill="#65844A" cx="268.441" cy="1228.764" rx="1.577" ry="11.82"/>
<ellipse fill="#65844A" cx="268.441" cy="1258.039" rx="1.577" ry="11.819"/>
<ellipse fill="#65844A" cx="268.441" cy="1288.18" rx="1.577" ry="11.82"/>
<ellipse fill="#65844A" cx="268.441" cy="1317.943" rx="1.577" ry="11.82"/>
<ellipse fill="#65844A" cx="268.441" cy="1347.218" rx="1.577" ry="11.821"/>
<rect x="305.631" y="1494.473" fill="#0E82A1" width="26.507" height="42.715"/>
<rect x="279.625" y="1494.473" fill="#1D96BC" width="26.507" height="42.715"/>
<rect x="305.631" y="1393.473" fill="#0E82A1" width="26.507" height="93.646"/>
<rect x="279.625" y="1393.473" fill="#1D96BC" width="26.507" height="93.646"/>
<path fill="#096C86" d="M267.508,1523.748c0-6.529,0.706-11.82,1.575-11.82c0.874,0,1.579,5.291,1.579,11.82
	c0,6.525-0.705,11.818-1.579,11.818C268.214,1535.566,267.508,1530.273,267.508,1523.748z"/>
<path fill="#096C86" d="M267.508,1494.473c0-6.529,0.706-11.82,1.575-11.82c0.874,0,1.579,5.291,1.579,11.82
	c0,6.527-0.705,11.82-1.579,11.82C268.214,1506.293,267.508,1501,267.508,1494.473z"/>
<path fill="#096C86" d="M267.508,1464.328c0-6.525,0.706-11.816,1.575-11.816c0.874,0,1.579,5.291,1.579,11.816
	c0,6.529-0.705,11.822-1.579,11.822C268.214,1476.15,267.508,1470.857,267.508,1464.328z"/>
<path fill="#096C86" d="M267.508,1434.566c0-6.527,0.706-11.818,1.575-11.818c0.874,0,1.579,5.291,1.579,11.818
	c0,6.529-0.705,11.82-1.579,11.82C268.214,1446.387,267.508,1441.096,267.508,1434.566z"/>
<path fill="#096C86" d="M267.508,1405.293c0-6.527,0.706-11.82,1.575-11.82c0.874,0,1.579,5.293,1.579,11.82
	c0,6.529-0.705,11.82-1.579,11.82C268.214,1417.113,267.508,1411.822,267.508,1405.293z"/>
<path fill="#096C86" d="M341.889,1523.748c0-6.529,0.706-11.82,1.576-11.82c0.871,0,1.575,5.291,1.575,11.82
	c0,6.525-0.704,11.818-1.575,11.818C342.595,1535.566,341.889,1530.273,341.889,1523.748z"/>
<ellipse fill="#096C86" cx="343.464" cy="1494.473" rx="1.576" ry="11.82"/>
<path fill="#096C86" d="M341.889,1464.328c0-6.525,0.706-11.816,1.576-11.816c0.871,0,1.575,5.291,1.575,11.816
	c0,6.529-0.704,11.822-1.575,11.822C342.595,1476.15,341.889,1470.857,341.889,1464.328z"/>
<ellipse fill="#096C86" cx="343.464" cy="1434.566" rx="1.576" ry="11.818"/>
<ellipse fill="#096C86" cx="343.464" cy="1405.293" rx="1.576" ry="11.82"/>
<rect x="304.974" y="1368.702" fill="#DFDEDE" width="6.067" height="15.084"/>
<rect x="298.902" y="1368.702" fill="#EEF0F0" width="6.071" height="15.08"/>
<rect x="304.502" y="1547.765" fill="#DFDEDE" width="6.067" height="15.084"/>
<rect x="298.431" y="1547.765" fill="#EEF0F0" width="6.071" height="15.08"/>
<g>
	<g>
		<path fill="#00A6CB" d="M305.637,534.051c-9.578,0-17.935,5.211-22.397,12.952c-1.697,3.089-1.855,5.771-0.595,7.978
			c1.476,2.58,4.799,2.973,6.653,2.973h3.291l-1.194,3.739c-0.76,2.259-0.437,4.665,0.744,6.329
			c1.159,1.592,2.998,2.465,5.201,2.465c1.536,0,3.129-0.257,4.605-0.939c-0.392-0.562-0.717-1.182-0.965-1.844
			c-0.222-0.604-0.38-1.239-0.465-1.892c-0.929,0.359-1.972,0.511-2.995,0.511c-0.587,0-1.452-0.225-1.898-0.851
			c-0.41-0.563-0.526-1.468-0.24-2.488l1.631-5.03h5.078l1.344-4.193h-5.058l2.236-6.865h-4.455l-2.227,6.865h-4.634
			c-1.478,0-2.408-0.375-2.85-1.147c-0.496-0.866-0.057-2.638,1.175-4.727l0.05-0.083c3.891-5.768,10.48-9.559,17.963-9.559
			c11.96,0,21.659,9.698,21.659,21.659c0,11.965-9.699,21.657-21.659,21.657c-10.578,0-19.385-7.584-21.273-17.611l-4.113,0.838
			c2.285,11.941,12.779,20.967,25.386,20.967c14.276,0,25.853-11.575,25.853-25.851
			C331.489,545.627,319.913,534.051,305.637,534.051z"/>
	</g>
	<g>
		<path fill="#00A6CB" d="M322.086,566.887c-1.007,0-2.373-0.125-3.181-0.718c-0.316-0.233-0.741-0.654-0.864-1.309
			c-0.007-0.007-0.015-0.059-0.015-0.062c-0.051-0.332-0.028-0.731,0.131-1.191l3.193-9.848h-0.018h-4.423h-0.002l-2.729,8.52
			c-0.003,0.013-0.003,0.013-0.009,0.024c-0.765,2.2-3.062,3.992-5.128,3.992c-0.543,0-1.245-0.22-1.597-0.706
			c-0.269-0.373-0.523-1.02-0.2-1.984l3.199-9.846H306l-2.724,8.512c-0.707,2.094-0.456,4.289,0.674,5.881
			c1.096,1.504,2.845,2.334,4.925,2.334c2.057,0,4.257-0.848,6.061-2.334c0.614,0.926,1.382,1.518,2.39,1.863
			c1.397,0.471,2.349,0.471,3.356,0.471c0.479,0,0.974-0.105,1.2-0.166c0.087-0.139,0.182-0.272,0.267-0.412
			c0.16-0.268,0.316-0.539,0.467-0.812c0.145-0.268,0.288-0.551,0.425-0.826c0.128-0.28,0.26-0.57,0.383-0.859
			c0.085-0.197,0.166-0.408,0.245-0.616C323.394,566.825,322.791,566.887,322.086,566.887z"/>
	</g>
</g>
<polyline opacity="0.3" fill="#FFFFFF" points="301.465,242.896 288.569,455.981 272.806,242.896 "/>
<polyline opacity="0.3" fill="#FFFFFF" points="334.357,242.896 321.461,455.981 305.699,242.896 "/>
</svg>
